<svg width="32" height="32" viewBox="0 0 32 32" fill="none" xmlns="http://www.w3.org/2000/svg">
<path d="M31 13C30.9998 12.2335 30.7794 11.4832 30.365 10.8383C29.9506 10.1935 29.3596 9.68132 28.6624 9.36276C27.9652 9.04419 27.1912 8.93265 26.4324 9.04142C25.6737 9.15018 24.9621 9.47467 24.3825 9.97626C22.2888 8.86376 19.7875 8.19126 17.175 8.03501L17.8238 4.13876L20.0388 4.47876C20.1511 5.17747 20.5069 5.81396 21.0432 6.27573C21.5795 6.7375 22.2617 6.99483 22.9694 7.00222C23.677 7.00961 24.3645 6.76659 24.9103 6.31612C25.4561 5.86565 25.8251 5.23673 25.952 4.54052C26.079 3.84431 25.9557 3.12564 25.604 2.51152C25.2523 1.8974 24.6949 1.42738 24.0301 1.18454C23.3654 0.941695 22.6363 0.94166 21.9715 1.18444C21.3068 1.42722 20.7493 1.89718 20.3975 2.51126L17.1475 2.01126C16.8875 1.97117 16.6222 2.03516 16.409 2.18935C16.1959 2.34354 16.0521 2.57552 16.0088 2.83501L15.15 8.02001C12.42 8.13751 9.7975 8.81751 7.6175 9.97626C6.82138 9.30372 5.79422 8.96845 4.75463 9.04181C3.71505 9.11517 2.74514 9.59137 2.05136 10.369C1.35758 11.1467 0.994701 12.1645 1.03997 13.2057C1.08525 14.2468 1.53509 15.2292 2.29375 15.9438C2.09932 16.6119 2.00043 17.3042 2 18C2 20.7413 3.5 23.2938 6.23875 25.1863C8.86 27 12.3263 28 16 28C19.6738 28 23.14 27 25.7613 25.1863C28.5 23.2938 30 20.7413 30 18C29.9996 17.3042 29.9007 16.6119 29.7063 15.9438C30.1129 15.5685 30.4377 15.1134 30.6603 14.6069C30.8829 14.1003 30.9985 13.5533 31 13ZM23 3.00001C23.1978 3.00001 23.3911 3.05866 23.5556 3.16854C23.72 3.27843 23.8482 3.4346 23.9239 3.61733C23.9996 3.80006 24.0194 4.00112 23.9808 4.1951C23.9422 4.38909 23.847 4.56727 23.7071 4.70712C23.5673 4.84697 23.3891 4.94221 23.1951 4.9808C23.0011 5.01938 22.8 4.99958 22.6173 4.92389C22.4346 4.84821 22.2784 4.72003 22.1685 4.55558C22.0587 4.39113 22 4.1978 22 4.00001C22 3.7348 22.1054 3.48044 22.2929 3.29291C22.4804 3.10537 22.7348 3.00001 23 3.00001ZM28.0163 14.7225C27.8081 14.8458 27.6517 15.0405 27.5761 15.2703C27.5004 15.5002 27.5107 15.7497 27.605 15.9725C27.8648 16.617 27.9988 17.3052 28 18C28 20.0663 26.8013 22.0338 24.625 23.5413C22.3338 25.125 19.2713 26 16 26C12.7288 26 9.66625 25.125 7.375 23.5413C5.19875 22.0338 4 20.0663 4 18C4.00168 17.3075 4.13487 16.6216 4.3925 15.9788C4.48701 15.7562 4.49767 15.5069 4.42252 15.2771C4.34737 15.0473 4.19149 14.8525 3.98375 14.7288C3.72938 14.5771 3.51187 14.3709 3.34691 14.1249C3.18196 13.8789 3.07368 13.5994 3.02991 13.3065C2.98613 13.0136 3.00795 12.7147 3.09379 12.4312C3.17962 12.1478 3.32733 11.887 3.52624 11.6676C3.72516 11.4482 3.97031 11.2757 4.24401 11.1625C4.5177 11.0494 4.8131 10.9985 5.10887 11.0135C5.40464 11.0284 5.69341 11.1088 5.9543 11.249C6.2152 11.3891 6.44172 11.5854 6.6175 11.8238C6.76259 12.0231 6.97618 12.1617 7.21727 12.2132C7.45836 12.2646 7.70995 12.2252 7.92375 12.1025L7.96875 12.075C10.1813 10.7375 13.0313 10 16 10C18.9663 10 21.8163 10.7375 24.0288 12.075L24.0813 12.1063C24.2948 12.2265 24.5449 12.2641 24.7844 12.212C25.0238 12.1599 25.2357 12.0218 25.38 11.8238C25.5547 11.5834 25.7808 11.3851 26.0418 11.2431C26.3028 11.1011 26.5921 11.019 26.8888 11.0028C27.1855 10.9867 27.4821 11.0368 27.7569 11.1496C28.0318 11.2624 28.2781 11.435 28.4779 11.6549C28.6777 11.8748 28.826 12.1365 28.912 12.4209C28.998 12.7053 29.0196 13.0053 28.9751 13.2991C28.9307 13.5929 28.8213 13.873 28.655 14.1193C28.4887 14.3655 28.2697 14.5716 28.0138 14.7225H28.0163ZM11 18C10.6044 18 10.2178 17.8827 9.88886 17.663C9.55997 17.4432 9.30362 17.1308 9.15225 16.7654C9.00087 16.3999 8.96126 15.9978 9.03843 15.6098C9.1156 15.2219 9.30609 14.8655 9.58579 14.5858C9.8655 14.3061 10.2219 14.1156 10.6098 14.0384C10.9978 13.9613 11.3999 14.0009 11.7654 14.1523C12.1308 14.3036 12.4432 14.56 12.6629 14.8889C12.8827 15.2178 13 15.6045 13 16C13 16.5304 12.7893 17.0392 12.4142 17.4142C12.0391 17.7893 11.5304 18 11 18ZM23 16C23 16.3956 22.8827 16.7823 22.6629 17.1112C22.4432 17.4401 22.1308 17.6964 21.7654 17.8478C21.3999 17.9991 20.9978 18.0388 20.6098 17.9616C20.2219 17.8844 19.8655 17.6939 19.5858 17.4142C19.3061 17.1345 19.1156 16.7782 19.0384 16.3902C18.9613 16.0022 19.0009 15.6001 19.1522 15.2346C19.3036 14.8692 19.56 14.5568 19.8889 14.3371C20.2178 14.1173 20.6044 14 21 14C21.5304 14 22.0391 14.2107 22.4142 14.5858C22.7893 14.9609 23 15.4696 23 16ZM20.8838 21.5313C20.9454 21.6473 20.9835 21.7744 20.996 21.9051C21.0085 22.0359 20.9951 22.1679 20.9565 22.2935C20.918 22.4191 20.8551 22.5359 20.7714 22.6372C20.6877 22.7384 20.5848 22.8222 20.4688 22.8838C19.0927 23.615 17.5583 23.9974 16 23.9974C14.4417 23.9974 12.9073 23.615 11.5313 22.8838C11.4152 22.8222 11.3124 22.7384 11.2287 22.6371C11.1451 22.5358 11.0822 22.4191 11.0436 22.2935C11.0051 22.1679 10.9917 22.0359 11.0041 21.9051C11.0166 21.7744 11.0547 21.6473 11.1163 21.5313C11.1778 21.4152 11.2616 21.3124 11.3629 21.2287C11.4642 21.1451 11.581 21.0822 11.7066 21.0437C11.8321 21.0051 11.9641 20.9917 12.0949 21.0042C12.2257 21.0166 12.3527 21.0547 12.4688 21.1163C13.556 21.6943 14.7686 21.9966 16 21.9966C17.2314 21.9966 18.444 21.6943 19.5313 21.1163C19.6473 21.0547 19.7743 21.0165 19.9051 21.004C20.0359 20.9916 20.1679 21.005 20.2935 21.0435C20.4191 21.082 20.5359 21.145 20.6372 21.2287C20.7384 21.3123 20.8222 21.4152 20.8838 21.5313Z" fill="#202930"/>
</svg>
