<svg width="277" height="190" viewBox="0 0 277 190" fill="none" xmlns="http://www.w3.org/2000/svg">
<g clip-path="url(#clip0_64_7657)">
<path d="M257.217 0.835449H19.7888C9.13489 0.835449 0.498169 9.47217 0.498169 20.1261V170.405C0.498169 181.059 9.13489 189.696 19.7888 189.696H257.217C267.871 189.696 276.508 181.059 276.508 170.405V20.1261C276.508 9.47217 267.871 0.835449 257.217 0.835449Z" fill="#2C3640"/>
<path d="M134.106 42.6758H105.624V88.9236H134.106V42.6758Z" fill="white"/>
<path d="M120.303 42.6759C112.918 31.8866 100.515 24.8062 86.4501 24.8062C63.8038 24.8062 45.4524 43.1576 45.4524 65.8038C45.4524 88.4501 63.8038 106.801 86.4501 106.801C100.515 106.801 112.918 99.721 120.303 88.9317C115.799 82.349 113.158 74.3855 113.158 65.8038C113.158 57.2222 115.799 49.2586 120.303 42.6759Z" fill="#FF7F01"/>
<path d="M154.153 24.7979C140.089 24.7979 127.686 31.8783 120.3 42.6676C124.804 49.2503 127.445 57.2139 127.445 65.7955C127.445 74.3772 124.804 82.3407 120.3 88.9234C127.686 99.7127 140.089 106.793 154.153 106.793C176.799 106.793 195.151 88.4418 195.151 65.7955C195.151 43.1493 176.799 24.7979 154.153 24.7979Z" fill="#3EB1E8"/>
<path d="M254.027 167.219V46.377L195.151 77.1071L138.451 106.705L120.301 116.186V167.219H254.027Z" fill="white"/>
</g>
<defs>
<clipPath id="clip0_64_7657">
<rect width="277" height="190" fill="white"/>
</clipPath>
</defs>
</svg>
