<svg width="40" height="24" viewBox="0 0 40 24" fill="none" xmlns="http://www.w3.org/2000/svg">
<rect width="40" height="24" rx="4" fill="#3FBCF4"/>
<path d="M5.86978 12.2888V15.0134H4V7H7.3389C8.45435 7 9.50143 8.27733 9.60294 9.33028C9.73329 10.6829 8.67873 12.2888 7.23205 12.2888H5.86978ZM5.86978 10.6327H6.8581C6.88694 10.6327 7.11933 10.5419 7.17008 10.5173C7.82771 10.2005 7.88754 9.22077 7.27693 8.82491C7.22991 8.79446 6.93502 8.65609 6.91152 8.65609H5.86978V10.6327Z" fill="#202930"/>
<path d="M24.194 12.2888V15.0133H22.3242V6.99994H25.6631C26.9266 6.99994 27.9592 8.515 27.9368 9.69937C27.9138 10.9051 26.8256 12.2888 25.5563 12.2888H24.194ZM24.194 10.6327H25.1823C25.201 10.6327 25.4788 10.5178 25.5242 10.4938C26.1471 10.1679 26.1781 9.20254 25.6006 8.82485C25.5541 8.7944 25.2587 8.65603 25.2352 8.65603H24.1935V10.6327H24.194Z" fill="#202930"/>
<path d="M31.886 15.0133V14.5859C30.1402 16.0331 27.7682 14.6863 27.663 12.5318C27.5503 10.2165 29.9521 8.59139 31.8855 10.0984V9.67105H33.462L33.5421 9.75118V15.0133H31.886ZM30.3229 11.1797C29.848 11.2593 29.4874 11.8672 29.4804 12.3181C29.4559 13.8989 31.6435 13.987 31.7781 12.5286C31.8647 11.591 31.2519 11.0232 30.3229 11.1797Z" fill="#202930"/>
<path d="M13.5096 15.0133V14.586C11.104 16.4354 8.38052 13.6746 9.54726 11.0777C10.0708 9.9131 11.4726 9.20525 12.7077 9.64492L13.5096 10.0979V9.6711H15.1128V15.0133H13.5101H13.5096ZM11.4454 11.4533C10.7605 12.1328 11.135 13.4881 12.1479 13.572C13.8649 13.7141 13.843 10.7775 11.9043 11.191C11.7616 11.2214 11.5474 11.3523 11.4454 11.4533Z" fill="#202930"/>
<path d="M17.5159 9.67108L18.852 12.2354L20.1603 9.67108H21.95L17.9967 17.7379H16.127L17.931 14.0341L15.581 9.86981L15.5393 9.67108H17.5159Z" fill="#202930"/>
<path d="M36 6.99994H34.1836V15.0133H36V6.99994Z" fill="#202930"/>
</svg>
