<svg width="40" height="24" viewBox="0 0 40 24" fill="none" xmlns="http://www.w3.org/2000/svg">
<rect width="40" height="24" rx="4" fill="#3FBCF4"/>
<path d="M24.8494 7.00031C22.5803 7.00031 20.5429 8.18368 20.5429 10.3552C20.5429 12.8562 24.1418 13.027 24.1418 14.2714C24.1418 14.796 23.5318 15.2718 22.5071 15.2718C21.0431 15.2718 19.9451 14.613 19.9451 14.613L19.4815 16.8089C19.4815 16.8089 20.7381 17.3701 22.4217 17.3701C24.9104 17.3701 26.8624 16.1379 26.8624 13.9176C26.8624 11.2824 23.2512 11.1116 23.2512 9.95265C23.2512 9.53786 23.7514 9.08647 24.7762 9.08647C25.9352 9.08647 26.8868 9.56226 26.8868 9.56226L27.3504 7.4395C27.3382 7.4395 26.3012 7.00031 24.8494 7.00031ZM4.061 7.1589L4 7.4761C4 7.4761 4.95158 7.64689 5.81777 8.00069C6.92795 8.40328 7.00114 8.63507 7.19634 9.35486L9.2337 17.1993H11.9665L16.151 7.1589H13.4304L10.7343 13.9908L9.63629 8.19588C9.5387 7.5371 9.02631 7.1589 8.39192 7.1589H4.061ZM17.249 7.1589L15.114 17.1993H17.7125L19.8353 7.1589H17.249ZM31.7179 7.1589C31.0957 7.1589 30.7663 7.4883 30.5223 8.07389L26.716 17.1993H29.4365L29.9611 15.6743H33.2795L33.5966 17.1993H36L33.9138 7.1589H31.7179ZM32.0717 9.87945L32.8769 13.6492H30.7175L32.0717 9.87945Z" fill="#202930"/>
</svg>
